
<svg xmlns:x="http://ns.adobe.com/Extensibility/1.0/" xmlns:i="http://ns.adobe.com/AdobeIllustrator/10.0/" xmlns:graph="http://ns.adobe.com/Graphs/1.0/" xmlns="http://www.w3.org/2000/svg" xmlns:xlink="http://www.w3.org/1999/xlink" xmlns:a="http://ns.adobe.com/AdobeSVGViewerExtensions/3.0/" version="1.1" x="10px" y="10px" viewBox="0 0 98 122.5" style="enable-background:new 0 0 98 98;" xml:space="preserve"><path d="M79.965,4.903H24.014c-4.816,0-8.736,4.288-8.736,9.559c0,0,0,68.544,0,68.92c0,5.357,4.359,9.715,9.715,9.715h54.973  c1.523,0,2.758-1.234,2.758-2.756V7.659C82.723,6.137,81.488,4.903,79.965,4.903z M77.209,73.667H36.234V10.416H48.32v22.125  c0,1.054,0.602,2.016,1.549,2.478c0.949,0.461,2.076,0.342,2.906-0.308l6.936-5.43l6.934,5.43c0.494,0.387,1.094,0.586,1.699,0.586  c0.41,0,0.824-0.092,1.207-0.278c0.947-0.462,1.549-1.424,1.549-2.478V10.416h6.109V73.667z M53.832,10.416h11.756v16.466  L61.41,23.61c-0.998-0.782-2.4-0.782-3.398,0l-4.18,3.271V10.416z M24.014,10.416h6.707v63.252h-5.729  c-1.504,0-2.93,0.344-4.201,0.957V14.462C20.791,12.269,22.268,10.416,24.014,10.416z M77.209,87.584H24.992  c-2.316,0-4.201-1.885-4.201-4.203s1.885-4.203,4.201-4.203h52.217V87.584z"/></svg>